<svg xmlns="http://www.w3.org/2000/svg" viewBox="0 0 351 213" fill="#29293a" aria-hidden="false" height="17">
  <title>Süddeutsche Zeitung</title>
  <path d="M84 191.7c-22.8-9.6-24.8-10.8-54-31.2L0 190.8l7.8 7.5 14-14c32.8 21.8 70.4 34.2 112 24.7a61.5 61.5 0 0043.4-45.6c3-16.5-1-32-12.1-43.3-19.3-21.4-82.5-40.7-82.5-40.7S36.4 66.4 37 43.7C37.5 31 51 22.3 61 18.9c37.4-10.6 73.6 9.5 103.4 29.8l12.3-11.8c21.6-21.7 60.3-20.3 83-21l40.2.6-118.8 196.3h150.5l11-26.6c-21 12.5-83.3 13.7-107.8 12.6L350.4 3 193 3.2l-22.6 21.4c-33.2-22-75-32.9-114.6-17.2-19.7 7-40.3 25.8-42.3 47-3 22.1 9.4 40.6 26.8 53 33.3 23.2 78.5 18.3 105.7 50.5 16.3 21.7-3 56-62 33.8"></path>
</svg>